<svg xmlns="http://www.w3.org/2000/svg" viewBox="0 0 24 24"><defs><style>.cls-1{fill:#00a6a8;fill-rule:evenodd;}.cls-2{fill:#d8d8d8;fill-opacity:0;}</style></defs><title>Asset 44</title><g id="Layer_2" data-name="Layer 2"><g id="Layer_1-2" data-name="Layer 1"><g id="Symbols"><g id="Group"><path id="Combined-Shape" class="cls-1" d="M16.214,3a.643.643,0,0,1,.635.747l-.025.1L15.8,6.917c3.4.421,5.114,3.265,5.2,6.749l0,.263v3.857A3.218,3.218,0,0,1,17.968,21l-.182,0H6.214a3.218,3.218,0,0,1-3.209-3.032l0-.182V13.929c0-3.516,1.628-6.435,4.947-6.976L8.2,6.917,7.176,3.847a.643.643,0,0,1,.508-.839L7.786,3ZM14.678,4.75H9.321l1.214,3.641-2.121.263c-2.251.278-3.582,2.112-3.66,5l0,.274v3.857a1.468,1.468,0,0,0,1.324,1.457l.14.007H17.786a1.468,1.468,0,0,0,1.457-1.324l.007-.14V13.929c0-2.954-1.263-4.869-3.456-5.245l-.208-.03-2.121-.263ZM12.564,9.5v.854a2.16,2.16,0,0,1,1.865,2.076h0l-1.492.339c-.062-.881-.4-1.34-.977-1.34a.634.634,0,0,0-.631.679c0,.45.285.716,1.253,1.121,1.4.587,1.918,1.166,1.918,2.176a2.094,2.094,0,0,1-1.936,2.259h0V18.5h-.977v-.854A2.327,2.327,0,0,1,9.5,15.635h0l1.483-.423c.133.854.542,1.277,1.243,1.277a.705.705,0,0,0,.782-.744c0-.468-.311-.753-1.306-1.212-1.376-.634-1.882-1.2-1.882-2.122a1.981,1.981,0,0,1,1.767-2.039h0V9.5Z"/><rect id="Rectangle" class="cls-2" width="24" height="24"/></g></g></g></g></svg>