<svg xmlns="http://www.w3.org/2000/svg" viewBox="0 0 24 24"><defs><style>.cls-1{fill:#00a6a8;fill-rule:evenodd;}.cls-2{fill:#d8d8d8;fill-opacity:0;}</style></defs><title>Asset 28</title><g id="Layer_2" data-name="Layer 2"><g id="Layer_1-2" data-name="Layer 1"><g id="Symbols"><g id="Group"><path id="calendar-_-calendar" data-name="calendar-/-calendar" class="cls-1" d="M9,12v2H7V12Zm0,4v2H7V16Zm2-4v2h2V12Zm2,4v2H11V16Zm2-4v2h2V12Zm2,4v2H15V16Zm2,6H5a2,2,0,0,1-2-2V6A2,2,0,0,1,5,4H7V2H9V4h6V2h2V4h2a2,2,0,0,1,2,2V20a2,2,0,0,1-2,2ZM19,8V6H5V8Zm0,2V20H5V10Z"/><rect id="Rectangle" class="cls-2" width="24" height="24"/></g></g></g></g></svg>