<svg xmlns="http://www.w3.org/2000/svg" viewBox="0 0 24 24"><defs><style>.cls-1{fill:#ffffff;fill-rule:evenodd;}.cls-2{fill:#d8d8d8;fill-opacity:0;}</style></defs><title>Asset 8</title><g id="Layer_2" data-name="Layer 2"><g id="Layer_1-2" data-name="Layer 1"><g id="Symbols"><g id="Group"><path id="Combined-Shape" class="cls-1" d="M12,2A10,10,0,1,1,2,12.28L2,12A10,10,0,0,1,12,2Zm0,2a8,8,0,0,0-.249,16L12,20l.249,0A8,8,0,0,0,12,4ZM9.482,6a5.12,5.12,0,0,1,3.547,4.341,3.709,3.709,0,0,0,.638-2.457A6.767,6.767,0,0,1,17,13.481a4.531,4.531,0,0,1-3.488,4.51A5.929,5.929,0,0,0,12,13.877,5.942,5.942,0,0,0,10.487,18,4.19,4.19,0,0,1,7,13.975C7,10.8,9.807,10.11,9.482,6Z"/><rect id="Rectangle" class="cls-2" width="24" height="24"/></g></g></g></g></svg>