<svg xmlns="http://www.w3.org/2000/svg" viewBox="0 0 444.191 88.561"><defs><style>.cls-1{fill:#3f4745;}.cls-2{fill:#00a6a8;}</style></defs><title>Freehunter logo</title><g id="Layer_2" data-name="Layer 2"><g id="Design_5_Horizontal" data-name="Design 5 Horizontal"><g id="Layer_14" data-name="Layer 14"><path class="cls-1" d="M105.4,63.773H98.7V29.579H120.3V35.9H105.351v8.44h13.311v6.125H105.4Z"/><path class="cls-1" d="M147.5,63.773l-6.7-13.167h-3.472V63.773h-6.7V29.579h13.359a10.693,10.693,0,0,1,7.909,2.991,10.2,10.2,0,0,1,2.991,7.523,9.688,9.688,0,0,1-7.283,9.694l7.331,13.986Zm-10.176-18.9h5.4a5.608,5.608,0,0,0,3.931-1.3,4.422,4.422,0,0,0,1.422-3.424,4.481,4.481,0,0,0-1.422-3.472,5.608,5.608,0,0,0-3.931-1.3h-5.4Z"/><path class="cls-1" d="M187,63.773H165.587V29.579H187v6.27H172.242v7.813H185.6v5.932H172.242V57.5H187Z"/><path class="cls-1" d="M219.89,63.773H198.477V29.579H219.89v6.27H205.132v7.813h13.359v5.932H205.132V57.5H219.89Z"/><path class="cls-1" d="M259.628,63.773h-6.7V49.594h-14.9V63.773h-6.655V29.579h6.655V43.324h14.9V29.579h6.7Z"/><path class="cls-1" d="M285.043,64.544a13.386,13.386,0,0,1-9.4-3.4q-3.716-3.4-3.714-9.477V29.579h6.656V51.185a7,7,0,0,0,1.712,5.088,6.314,6.314,0,0,0,4.75,1.76,6.382,6.382,0,0,0,4.8-1.76,7.006,7.006,0,0,0,1.713-5.088V29.579h6.655V51.667q0,6.078-3.714,9.477A13.454,13.454,0,0,1,285.043,64.544Z"/><path class="cls-1" d="M339.684,63.773h-6.993L317.162,39.514V63.773h-6.655V29.579h8.3L333.029,52.2V29.579h6.655Z"/><path class="cls-1" d="M377.494,35.9h-10.8V63.773h-6.7V35.9h-10.8V29.579h28.309Z"/><path class="cls-1" d="M408.407,63.773H386.994V29.579h21.413v6.27H393.65v7.813h13.358v5.932H393.65V57.5h14.757Z"/><path class="cls-1" d="M436.764,63.773l-6.7-13.167h-3.472V63.773h-6.7V29.579h13.359a10.7,10.7,0,0,1,7.91,2.991,10.2,10.2,0,0,1,2.99,7.523,9.688,9.688,0,0,1-7.283,9.694l7.331,13.986Zm-10.176-18.9h5.4a5.606,5.606,0,0,0,3.931-1.3,4.422,4.422,0,0,0,1.422-3.424,4.481,4.481,0,0,0-1.422-3.472,5.606,5.606,0,0,0-3.931-1.3h-5.4Z"/><path class="cls-2" d="M27.581,63.772A3.368,3.368,0,0,1,24.212,60.4V21.983a22.706,22.706,0,0,1,2.832-11.009,21.117,21.117,0,0,1,5.218-6.229,21.528,21.528,0,0,1,5.791-3.317A22.323,22.323,0,0,1,42.964.157,13.627,13.627,0,0,1,45.8.032a18.878,18.878,0,0,1,3.7.359,22.362,22.362,0,0,1,4.972,1.571A20.822,20.822,0,0,1,64.265,11a22.51,22.51,0,0,1,2.777,10.86v.363a3.369,3.369,0,1,1-6.737,0v-.363a15.769,15.769,0,0,0-1.937-7.6,14.05,14.05,0,0,0-6.662-6.148,14.532,14.532,0,0,0-5.979-1.333,3.3,3.3,0,0,1-.587-.034A14.114,14.114,0,0,0,40.087,7.87,14.67,14.67,0,0,0,36.3,10.148a14.429,14.429,0,0,0-3.365,4.1,15.951,15.951,0,0,0-1.984,7.736V60.4A3.368,3.368,0,0,1,27.581,63.772ZM44.98,6.711h0Z"/><path class="cls-2" d="M33.477,88.561a21.237,21.237,0,0,1-6.666-1.131,22.459,22.459,0,0,1-6.6-3.517,20.707,20.707,0,0,1-5.383-6.178A22,22,0,0,1,12.1,68.867c-.01-.106-.015-.212-.015-.317V65.734a3.369,3.369,0,1,1,6.737,0v2.65a15.26,15.26,0,0,0,1.862,6.023,14.011,14.011,0,0,0,3.644,4.175,15.739,15.739,0,0,0,4.63,2.461,14.47,14.47,0,0,0,4.479.781,17.932,17.932,0,0,0,5.9-1.213,14.771,14.771,0,0,0,4.615-2.87,13.036,13.036,0,0,0,3.025-4.147,13.356,13.356,0,0,0,1.2-5.161V27.817a3.369,3.369,0,0,1,6.737,0V68.486c0,.034,0,.067,0,.1-.334,11.129-9.287,19.529-21.289,19.972-.04,0-.08,0-.12,0Z"/><path class="cls-2" d="M77.8,47.284H3.369a3.369,3.369,0,1,1,0-6.737H77.8a3.369,3.369,0,1,1,0,6.737Z"/></g></g></g></svg>