<svg xmlns="http://www.w3.org/2000/svg" viewBox="0 0 24 24"><defs><style>.cls-1{fill:#104351;fill-rule:evenodd;}.cls-2{fill:#d8d8d8;fill-opacity:0;}</style></defs><title>Asset 5</title><g id="Layer_2" data-name="Layer 2"><g id="Layer_1-2" data-name="Layer 1"><g id="Symbols"><g id="Group"><path id="brand-_-LinkedIn" data-name="brand-/-LinkedIn" class="cls-1" d="M17,21V14.25a2.249,2.249,0,0,0-2.246-1.944A1.808,1.808,0,0,0,13,14.25V21H9V9h4v2a4.593,4.593,0,0,1,3.525-1.763A4.508,4.508,0,0,1,21,13.75V21ZM3,21V9H7V21ZM7,5A2,2,0,1,1,5,3,2,2,0,0,1,7,5Z"/><rect id="Rectangle" class="cls-2" width="24" height="24"/></g></g></g></g></svg>