<svg xmlns="http://www.w3.org/2000/svg" viewBox="0 0 24 24"><defs><style>.cls-1{fill:#00a6a8;fill-rule:evenodd;}.cls-2{fill:#d8d8d8;fill-opacity:0;}</style></defs><title>Asset 32</title><g id="Layer_2" data-name="Layer 2"><g id="Layer_1-2" data-name="Layer 1"><g id="Symbols"><g id="Group"><path id="basic-_-location_outline" data-name="basic-/-location_outline" class="cls-1" d="M12,13a3,3,0,1,1,3-3A3,3,0,0,1,12,13ZM5,10q0,5.25,7,11,7-5.749,7-11A7,7,0,0,0,5,10Zm2,0a5,5,0,0,1,10,0c0,1.861-1.316,4.13-3.035,6.186A28.122,28.122,0,0,1,12,18.3a28.122,28.122,0,0,1-1.965-2.111C8.316,14.13,7,11.861,7,10Z"/><rect id="Rectangle" class="cls-2" width="24" height="24"/></g></g></g></g></svg>