<svg xmlns="http://www.w3.org/2000/svg" viewBox="0 0 24 24"><defs><style>.cls-1,.cls-2{fill:#104351;}.cls-1{opacity:0;}</style></defs><title>Asset 3</title><g id="Layer_2" data-name="Layer 2"><g id="Layer_1-2" data-name="Layer 1"><g id="Symbols"><g id="Group"><g id="Rectangle"><rect class="cls-1" width="24" height="24"/></g><g id="whatsapp-brands-_1_" data-name="whatsapp-brands-(1)"><path id="Shape" class="cls-2" d="M19,4.906a9.914,9.914,0,0,0-15.6,11.96L2,22l5.254-1.379a9.885,9.885,0,0,0,4.737,1.205H12a10.007,10.007,0,0,0,10-9.911A9.949,9.949,0,0,0,19,4.906ZM12,20.156a8.221,8.221,0,0,1-4.2-1.147l-.3-.179-3.116.817.83-3.04-.2-.312a8.253,8.253,0,1,1,15.308-4.38A8.329,8.329,0,0,1,12,20.156Zm4.517-6.169c-.245-.125-1.464-.724-1.692-.8s-.392-.125-.558.125-.638.8-.785.973-.29.188-.536.063A6.743,6.743,0,0,1,9.571,11.4c-.254-.437.255-.406.728-1.352a.461.461,0,0,0-.022-.433c-.063-.125-.558-1.344-.764-1.84s-.406-.415-.558-.424-.308-.009-.473-.009a.921.921,0,0,0-.661.308,2.787,2.787,0,0,0-.866,2.067,4.856,4.856,0,0,0,1.009,2.563A11.073,11.073,0,0,0,12.2,16.018a4.852,4.852,0,0,0,2.974.62,2.535,2.535,0,0,0,1.669-1.178,2.062,2.062,0,0,0,.143-1.179C16.924,14.17,16.759,14.107,16.513,13.987Z"/></g></g></g></g></g></svg>